#!OML:ASF X:\für Bonn\!DataBase\2005_08_10_Bjorn_Final\c3d\bjorn.ASF
:FULLY-SPECIFIED
:DEGREES
95
root -21.7746 19.4544 0.675754 108.107 -89.5001 -102.982
lowerback -13.6471 5.11387 -6.02005
upperback 4.67086 8.70588 -8.16713
thorax 13.3807 3.89281 -3.59229
lowerneck -0.228546 -8.65931 7.28334
upperneck 11.0314 -12.1025 0.643322
head 3.20778 -5.76555 -1.3175
rclavicle 9.93923e-014 -8.90555e-014
rhumerus 37.9143 3.32062 -36.1068
rradius 59.8834
rwrist -27.0754
rhand -1.72778 1.49156
rfingers 7.12502
rthumb 23.9345 -27.0367
lclavicle 9.93923e-014 -8.90555e-014
lhumerus -20.6216 21.5754 74.246
lradius 15.4655
lwrist -38.4154
lhand -17.8649 -7.28108
lfingers 7.12502
lthumb 8.40072 22.5318
rfemur -12.8024 -15.113 16.569
rtibia 25.0989
rfoot -8.34221 21.4713
rtoes 2.30939
lfemur -11.1246 15.3281 -16.1443
ltibia 23.6724
lfoot -9.72125 -13.9267
ltoes -2.06081
96
root -21.7685 19.4548 0.674257 99.5108 -89.5113 -94.3866
lowerback -13.6081 5.17445 -6.12018
upperback 4.67157 8.80334 -8.22384
thorax 13.3578 3.93207 -3.5805
lowerneck -0.281882 -8.71436 7.19677
upperneck 11.2418 -12.2167 0.85842
head 3.30777 -5.8116 -1.25001
rclavicle 1.19271e-014 -2.54444e-014
rhumerus 38.191 3.95365 -34.623
rradius 59.0134
rwrist -28.0783
rhand -0.566533 1.01693
rfingers 7.12502
rthumb 25.0476 -27.3607
lclavicle 1.19271e-014 -2.54444e-014
lhumerus -20.5192 21.4946 74.191
lradius 15.4534
lwrist -38.0622
lhand -17.751 -7.05546
lfingers 7.12502
lthumb 8.5106 22.753
rfemur -12.8182 -15.1369 16.5743
rtibia 25.1101
rfoot -8.30563 21.4395
rtoes 2.43036
lfemur -11.1563 15.2681 -16.143
ltibia 23.6789
lfoot -9.71281 -13.9053
ltoes -2.03702
97
root -21.7629 19.4556 0.671978 91.6123 -89.4955 -86.4968
lowerback -13.587 5.22483 -6.21325
upperback 4.6902 8.88864 -8.25945
thorax 13.3634 3.96447 -3.55072
lowerneck -0.337895 -8.76092 7.07718
upperneck 11.4505 -12.3177 1.06133
head 3.41006 -5.85232 -1.18129
rclavicle -9.14409e-014 1.55847e-013
rhumerus 38.4941 4.61963 -33.1317
rradius 58.213
rwrist -28.8733
rhand 0.526282 0.592807
rfingers 7.12502
rthumb 26.0944 -27.6345
lclavicle -9.14409e-014 1.55847e-013
lhumerus -20.4544 21.3684 74.1556
lradius 15.5016
lwrist -37.6697
lhand -17.6406 -6.79624
lfingers 7.12502
lthumb 8.6172 23.0079
rfemur -12.8244 -15.0878 16.5982
rtibia 25.123
rfoot -8.30978 21.3428
rtoes 2.46707
lfemur -11.1724 15.2169 -16.1222
ltibia 23.6815
lfoot -9.71653 -13.8891
ltoes -2.16058
98
root -21.757 19.4559 0.669948 82.3141 -89.4978 -77.1921
lowerback -13.5621 5.27302 -6.3301
upperback 4.69919 8.97437 -8.31141
thorax 13.3547 3.99595 -3.52673
lowerneck -0.409717 -8.8035 6.97428
upperneck 11.6729 -12.4206 1.28907
head 3.52196 -5.89172 -1.10906
rclavicle -2.22639e-014 3.18055e-015
rhumerus 38.7297 5.28068 -31.6909
rradius 57.5312
rwrist -29.5489
rhand 1.47187 0.328196
rfingers 7.12502
rthumb 26.9994 -27.7623
lclavicle -2.22639e-014 3.18055e-015
lhumerus -20.403 21.1788 74.1197
lradius 15.5639
lwrist -37.2643
lhand -17.5367 -6.5661
lfingers 7.12502
lthumb 8.71743 23.2339
rfemur -12.8441 -15.0852 16.5917
rtibia 25.1334
rfoot -8.3069 21.2822
rtoes 2.47412
lfemur -11.2085 15.1517 -16.1357
ltibia 23.6892
lfoot -9.71037 -13.8705
ltoes -2.12777
99
root -21.7514 19.4565 0.668446 73.5746 -89.4728 -68.4672
lowerback -13.5154 5.32718 -6.41503
upperback 4.71007 9.0602 -8.36423
thorax 13.34 4.03084 -3.52285
lowerneck -0.453585 -8.85289 6.87731
upperneck 11.8854 -12.5299 1.50764
head 3.62503 -5.93488 -1.03869
rclavicle -3.02153e-014 3.18055e-014
rhumerus 38.919 5.92598 -30.3336
rradius 56.9455
rwrist -30.0931
rhand 2.16999 0.358215
rfingers 7.12502
rthumb 27.6672 -27.627
lclavicle -3.02153e-014 3.18055e-014
lhumerus -20.3571 20.9699 74.0697
lradius 15.5997
lwrist -36.8817
lhand -17.509 -6.38944
lfingers 7.12502
lthumb 8.7442 23.4094
rfemur -12.839 -15.0643 16.5931
rtibia 25.1476
rfoot -8.3092 21.2008
rtoes 2.59725
lfemur -11.2198 15.0835 -16.1288
ltibia 23.6921
lfoot -9.70047 -13.8508
ltoes -2.16427
100
root -21.7461 19.4564 0.66654 65.7588 -89.4369 -60.6371
lowerback -13.5072 5.36756 -6.51785
upperback 4.7221 9.13457 -8.40238
thorax 13.3438 4.05731 -3.49269
lowerneck -0.534679 -8.8963 6.74985
upperneck 12.1274 -12.6366 1.72811
head 3.74883 -5.97592 -0.966509
rclavicle 4.6118e-014 -1.08139e-013
rhumerus 39.0826 6.49457 -29.1374
rradius 56.4902
rwrist -30.3717
rhand 2.66658 0.487963
rfingers 7.12502
rthumb 28.1419 -27.4201
lclavicle 4.6118e-014 -1.08139e-013
lhumerus -20.3063 20.9489 73.984
lradius 15.5749
lwrist -36.6769
lhand -17.5113 -6.27235
lfingers 7.12502
lthumb 8.74196 23.5266
rfemur -12.8714 -15.0396 16.6013
rtibia 25.1623
rfoot -8.26593 21.1363
rtoes 2.8552
lfemur -11.2673 15.0181 -16.13
ltibia 23.6991
lfoot -9.69364 -13.8498
ltoes -2.13147
101
root -21.7407 19.4572 0.665551 58.3667 -89.4044 -53.2443
lowerback -13.4796 5.40767 -6.60781
upperback 4.72929 9.20419 -8.45551
thorax 13.3349 4.08391 -3.4892
lowerneck -0.601738 -8.93255 6.64111
upperneck 12.3795 -12.7365 1.95416
head 3.87438 -6.0125 -0.894867
rclavicle -8.0309e-014 -1.27222e-014
rhumerus 39.1917 7.0184 -28.1088
rradius 56.1823
rwrist -30.7456
rhand 2.70744 0.61777
rfingers 7.12502
rthumb 28.181 -27.2839
lclavicle -8.0309e-014 -1.27222e-014
lhumerus -20.2621 21.0724 73.8367
lradius 15.494
lwrist -36.6393
lhand -17.5367 -6.23554
lfingers 7.12502
lthumb 8.71747 23.5644
rfemur -12.8843 -15.0088 16.5893
rtibia 25.1789
rfoot -8.29004 21.0462
rtoes 2.86752
lfemur -11.296 14.9495 -16.1458
ltibia 23.7021
lfoot -9.67347 -13.8257
ltoes -2.10671
102
root -21.7354 19.4575 0.664401 51.9679 -89.3466 -46.839
lowerback -13.453 5.45009 -6.68494
upperback 4.7392 9.27478 -8.50073
thorax 13.3302 4.11175 -3.48349
lowerneck -0.68568 -8.97671 6.50671
upperneck 12.6406 -12.8503 2.18916
head 4.00984 -6.05559 -0.818097
rclavicle -6.91771e-014 1.08139e-013
rhumerus 39.2613 7.38822 -27.352
rradius 55.9126
rwrist -30.8684
rhand 2.59106 0.777836
rfingers 7.12502
rthumb 28.0697 -27.1421
lclavicle -6.91771e-014 1.08139e-013
lhumerus -20.2192 21.1881 73.6988
lradius 15.4205
lwrist -36.6983
lhand -17.5676 -6.20603
lfingers 7.12502
lthumb 8.68759 23.5952
rfemur -12.9083 -15.0278 16.5989
rtibia 25.1949
rfoot -8.30391 20.9901
rtoes 2.78353
lfemur -11.3357 14.8751 -16.1469
ltibia 23.7117
lfoot -9.67315 -13.8224
ltoes -2.10982
103
root -21.73 19.4584 0.664028 45.4406 -89.2882 -40.3047
lowerback -13.421 5.49255 -6.75652
upperback 4.74491 9.34451 -8.56549
thorax 13.3222 4.14069 -3.5036
lowerneck -0.768296 -9.01831 6.42868
upperneck 12.9108 -12.9666 2.42747
head 4.14655 -6.09709 -0.749233
rclavicle 6.83819e-014 -9.54166e-015
rhumerus 39.255 7.61072 -26.9117
rradius 55.6943
rwrist -30.7663
rhand 2.46227 0.965781
rfingers 7.12502
rthumb 27.9466 -26.9743
lclavicle 6.83819e-014 -9.54166e-015
lhumerus -20.1885 21.1263 73.5737
lradius 15.3808
lwrist -36.6028
lhand -17.6286 -6.20204
lfingers 7.12502
lthumb 8.62879 23.6016
rfemur -12.9253 -14.9913 16.5892
rtibia 25.2111
rfoot -8.36117 20.8725
rtoes 2.61129
lfemur -11.3727 14.7923 -16.167
ltibia 23.7203
lfoot -9.66978 -13.8024
ltoes -2.1697
104
root -21.7247 19.4585 0.663879 40.3927 -89.2273 -35.2498
lowerback -13.3873 5.53043 -6.82166
upperback 4.74835 9.40617 -8.62732
thorax 13.3107 4.16648 -3.52607
lowerneck -0.841482 -9.0576 6.33984
upperneck 13.1763 -13.0785 2.6573
head 4.28135 -6.13715 -0.680413
rclavicle -1.00187e-013 -4.13472e-014
rhumerus 39.2139 7.73669 -26.6323
rradius 55.5345
rwrist -30.6762
rhand 2.35546 1.1513
rfingers 7.12502
rthumb 27.8445 -26.8053
lclavicle -1.00187e-013 -4.13472e-014
lhumerus -20.1586 21.0546 73.4497
lradius 15.3314
lwrist -36.6027
lhand -17.6693 -6.21499
lfingers 7.12502
lthumb 8.58948 23.5903
rfemur -12.9479 -14.995 16.576
rtibia 25.2248
rfoot -8.33117 20.8216
rtoes 2.76785
lfemur -11.4154 14.7167 -16.1877
ltibia 23.735
lfoot -9.6492 -13.7938
ltoes -2.12384
